<svg width="30" height="30" viewBox="0 0 30 30" fill="none" xmlns="http://www.w3.org/2000/svg">
<circle cx="15" cy="15" r="15" fill="#FFF86F"/>
<path d="M11.9 19.4C11.185 19.4 10.6 19.985 10.6 20.7C10.6 21.415 11.185 22 11.9 22C12.615 22 13.2 21.415 13.2 20.7C13.2 19.985 12.615 19.4 11.9 19.4ZM8 9V10.3H9.3L11.64 15.24L10.73 16.8C10.665 16.995 10.6 17.255 10.6 17.45C10.6 18.165 11.185 18.75 11.9 18.75H19.7V17.45H12.16C12.095 17.45 12.03 17.385 12.03 17.32V17.255L12.615 16.15H17.425C17.945 16.15 18.335 15.89 18.53 15.5L20.87 11.275C21 11.145 21 11.08 21 10.95C21 10.56 20.74 10.3 20.35 10.3H10.73L10.145 9H8ZM18.4 19.4C17.685 19.4 17.1 19.985 17.1 20.7C17.1 21.415 17.685 22 18.4 22C19.115 22 19.7 21.415 19.7 20.7C19.7 19.985 19.115 19.4 18.4 19.4Z" fill="#414141"/>
</svg>
