<svg id="Слой_1" data-name="Слой 1" xmlns="http://www.w3.org/2000/svg" xmlns:xlink="http://www.w3.org/1999/xlink" viewBox="0 0 115.57 112.98"><defs><style>.cls-1{clip-path:url(#clip-path);}.cls-2{fill:#f3e03a;fill-rule:evenodd;}.cls-3{fill:#1b1b1b;}</style><clipPath id="clip-path" transform="translate(-13.08 -32.38)"/></defs><title>лого мегаполис</title><g class="cls-1"><path class="cls-2" d="M128.65,88.57,71.89,145.36H49L128.65,65.7ZM126,32.38h2.64V52.6L35.94,145.36H13.08Z" transform="translate(-13.08 -32.38)"/><path class="cls-3" d="M86.19,107a1.36,1.36,0,0,1,0-1.89l.79-1a1.36,1.36,0,0,1,1.86-.36l25.9,21.61a1.35,1.35,0,0,1,0,1.89l-.8.95a1.35,1.35,0,0,1-1.85.36Zm-6-.78c-.35,4.06,3.17,6.39,3.17,6.39l24.73,20.64a3.73,3.73,0,0,0,5.26-.48l5.75-6.89a3.74,3.74,0,0,0-.47-5.26L93.88,100S91,96.91,87,98c0,0-3.14,1.66-4.85-4.48l.48-.58a1,1,0,0,0-.13-1.45l-1.3-1.08a1,1,0,0,0-1.45.13L77,93.88,49.87,71.27l-.11-4.15-10-4-2.88,3.45L43,75.19l4.24-.75L74.33,97.05l-2.8,3.36a1,1,0,0,0,.13,1.45l1.3,1.08a1,1,0,0,0,1.45-.13l.48-.58C81.24,102.81,80.17,106.2,80.17,106.2Z" transform="translate(-13.08 -32.38)"/><path class="cls-3" d="M44.05,124.19l6.12,5.11,7.48-2.75L59,118.7l-6.12-5.11-7.49,2.75ZM79.77,97.94l-1,1.14c-.29-.1-.6-.18-.93-.26l1.46-1.75A8.79,8.79,0,0,0,79.77,97.94Zm7.18-34c-1-3.15,2.37-4.45,2.37-4.45l16.49-9.7c2.88-2.43-.88-3.48-.88-3.48-19.81.39-25.31,8.16-25.31,8.16C74.73,60.66,76,67.53,78,72.31a37.35,37.35,0,0,1-5.37,12.92l3.83,3.2.32-.38a4.91,4.91,0,0,1,3.32-1.74v0a4.89,4.89,0,0,1,3.58,1.1h0L85,88.51h0a4.87,4.87,0,0,1,1.68,2.9,36.73,36.73,0,0,1,7-4.25,15.09,15.09,0,0,0,10.42-.55s8.95-3.25,14.56-22.25c0,0,0-3.9-3.12-1.77L101.87,75.93S99.64,78.74,97,77C97,77,89,72.71,87,63.92ZM54.16,108,65.32,94.58l3.56,3-.32.38h0a4.88,4.88,0,0,0-1.13,3.57h0a4.85,4.85,0,0,0,1.73,3.3v0l1.29,1.08a4.93,4.93,0,0,0,1.84,1l-8,9.58A13.74,13.74,0,1,1,54.16,108Z" transform="translate(-13.08 -32.38)"/></g></svg>