<svg width="56" height="54" viewBox="0 0 56 54" fill="none" xmlns="http://www.w3.org/2000/svg">
<path fill-rule="evenodd" clip-rule="evenodd" d="M55.2379 26.8566L28.1089 54H17.1683L55.2379 15.9256V26.8566ZM53.9713 0H55.2331V9.66436L10.9262 54H0L53.9713 0Z" fill="#F3E03A"/>
<path d="M34.9437 35.6653C34.8266 35.5441 34.7612 35.3822 34.7612 35.2136C34.7612 35.0451 34.8266 34.8832 34.9437 34.762L35.3213 34.284C35.418 34.1453 35.565 34.0498 35.7309 34.0177C35.8969 33.9856 36.0689 34.0194 36.2103 34.1119L48.5895 44.4407C48.7077 44.5613 48.774 44.7234 48.774 44.8923C48.774 45.0612 48.7077 45.2234 48.5895 45.344L48.2071 45.7981C48.1113 45.9364 47.9652 46.0318 47.8 46.0639C47.6348 46.0961 47.4636 46.0624 47.3229 45.9701L34.9437 35.6653ZM32.076 35.2925C31.9087 37.233 33.5911 38.3467 33.5911 38.3467L45.4111 48.2118C45.5911 48.3621 45.799 48.4754 46.0229 48.5452C46.2467 48.615 46.4822 48.64 46.7157 48.6187C46.9492 48.5974 47.1763 48.5302 47.3838 48.421C47.5914 48.3118 47.7753 48.1628 47.9251 47.9823L50.6734 44.6892C50.9763 44.3257 51.1227 43.857 51.0806 43.3857C51.0385 42.9145 50.8113 42.4791 50.4488 42.1751L38.6192 32.3196C38.6192 32.3196 37.2427 30.8427 35.3309 31.3637C35.3309 31.3637 33.8301 32.1571 33.0128 29.2224L33.2422 28.9452C33.2854 28.8964 33.3183 28.8394 33.3387 28.7775C33.3591 28.7156 33.3666 28.6501 33.3608 28.5852C33.3549 28.5203 33.3359 28.4573 33.3048 28.4C33.2738 28.3427 33.2313 28.2924 33.1801 28.2521L32.5587 27.7359C32.51 27.6927 32.4529 27.6598 32.391 27.6394C32.3291 27.6191 32.2637 27.6115 32.1988 27.6174C32.1339 27.6232 32.0708 27.6422 32.0135 27.6733C31.9563 27.7044 31.9059 27.7468 31.8657 27.7981L30.5513 29.3945L17.5842 18.5878L17.5316 16.6042L12.752 14.6924L11.3755 16.3413L14.3006 20.4614L16.3272 20.1029L29.2751 30.9096L27.9368 32.5155C27.8936 32.5643 27.8607 32.6214 27.8403 32.6833C27.82 32.7451 27.8124 32.8106 27.8183 32.8755C27.8241 32.9404 27.8431 33.0034 27.8742 33.0607C27.9053 33.118 27.9477 33.1683 27.999 33.2086L28.6203 33.7248C28.6691 33.768 28.7261 33.8009 28.788 33.8213C28.8499 33.8417 28.9153 33.8492 28.9802 33.8433C29.0452 33.8375 29.1082 33.8185 29.1655 33.7874C29.2228 33.7563 29.2731 33.7139 29.3134 33.6626L29.5428 33.3854C32.5778 33.6626 32.0664 35.2829 32.0664 35.2829L32.076 35.2925Z" fill="#191919"/>
<path d="M14.8024 43.8818L17.7275 46.3242L21.3027 45.0098L21.9479 41.2578L19.0228 38.8154L15.4429 40.1298L14.8024 43.8818ZM31.8752 31.3353L31.3972 31.8802C31.2586 31.8324 31.1104 31.7942 30.9527 31.7559L31.6505 30.9195C31.7176 31.0622 31.7926 31.201 31.8752 31.3353ZM35.3069 15.0847C34.829 13.5791 36.4397 12.9577 36.4397 12.9577L44.3213 8.32151C45.6978 7.16006 43.9007 6.6582 43.9007 6.6582C34.4323 6.84461 31.8035 10.5584 31.8035 10.5584C29.4663 13.5169 30.0733 16.8005 31.0292 19.0852C30.5703 21.2869 29.6994 23.3821 28.4625 25.2604L30.2931 26.7899L30.4461 26.6083C30.8442 26.1321 31.4148 25.8331 32.0329 25.7766C32.3387 25.7475 32.6472 25.779 32.9408 25.8692C33.2344 25.9594 33.5073 26.1066 33.744 26.3024L34.3749 26.8281C34.7981 27.1806 35.0826 27.6718 35.1779 28.2142C36.2139 27.4145 37.3361 26.7332 38.5236 26.1829C40.1622 26.6903 41.9279 26.5971 43.504 25.92C43.504 25.92 47.7817 24.3666 50.4631 15.2854C50.4631 15.2854 50.4631 13.4213 48.9718 14.4394L42.4381 20.8154C42.4381 20.8154 41.3723 22.1585 40.1104 21.3268C40.1104 21.3268 36.2868 19.2764 35.3308 15.0751L35.3069 15.0847ZM19.6346 36.1436L24.9686 29.7294L26.6702 31.1632L26.5172 31.3449C26.3193 31.5797 26.1697 31.8514 26.077 32.1442C25.9843 32.437 25.9504 32.7452 25.9771 33.0512C26.0042 33.3556 26.0912 33.6517 26.2331 33.9224C26.375 34.1931 26.569 34.4331 26.804 34.6285L27.4206 35.1447C27.6761 35.3651 27.976 35.5281 28.3 35.6226L24.4763 40.2015C25.0056 41.56 25.0677 43.056 24.6529 44.4536C24.2381 45.8513 23.3701 47.0713 22.1855 47.9212C21.0009 48.7711 19.5672 49.2027 18.1103 49.1479C16.6534 49.0931 15.2561 48.555 14.1387 47.6185C13.0213 46.6821 12.2474 45.4004 11.9387 43.9755C11.6301 42.5506 11.8044 41.0635 12.4342 39.7486C13.064 38.4337 14.1134 37.3657 15.4171 36.713C16.7207 36.0603 18.2045 35.86 19.6346 36.1436Z" fill="#191919"/>
</svg>
