<svg width="13" height="13" viewBox="0 0 13 13" fill="none" xmlns="http://www.w3.org/2000/svg">
<path d="M3.9 10.4C3.185 10.4 2.6 10.985 2.6 11.7C2.6 12.415 3.185 13 3.9 13C4.615 13 5.2 12.415 5.2 11.7C5.2 10.985 4.615 10.4 3.9 10.4ZM0 0V1.3H1.3L3.64 6.24L2.73 7.8C2.665 7.995 2.6 8.255 2.6 8.45C2.6 9.165 3.185 9.75 3.9 9.75H11.7V8.45H4.16C4.095 8.45 4.03 8.385 4.03 8.32V8.25497L4.615 7.14997H9.425C9.945 7.14997 10.335 6.88997 10.53 6.49997L12.87 2.275C13 2.145 13 2.08 13 1.95C13 1.56 12.74 1.3 12.35 1.3H2.73L2.145 0H0ZM10.4 10.4C9.685 10.4 9.1 10.985 9.1 11.7C9.1 12.415 9.685 13 10.4 13C11.115 13 11.7 12.415 11.7 11.7C11.7 10.985 11.115 10.4 10.4 10.4Z" fill="#191919"/>
</svg>
