<svg width="21" height="21" viewBox="0 0 21 21" fill="none" xmlns="http://www.w3.org/2000/svg">
<path d="M0.438498 3.90288C3.32067 6.34376 8.37798 10.638 9.86438 11.977C10.0639 12.1577 10.2779 12.2496 10.5001 12.2496C10.7219 12.2496 10.9355 12.1585 11.1346 11.9787C12.6223 10.6384 17.6796 6.34376 20.5618 3.90288C20.7412 3.75121 20.7686 3.48461 20.6233 3.29917C20.2875 2.87068 19.7868 2.625 19.2501 2.625H1.75014C1.21353 2.625 0.712769 2.87068 0.376974 3.29922C0.231697 3.48461 0.259054 3.75121 0.438498 3.90288Z" fill="#EBE231"/>
<path d="M20.7462 5.2256C20.5912 5.15341 20.4087 5.1786 20.2797 5.28885C17.0834 7.99842 13.0041 11.4715 11.7206 12.6281C11.0003 13.2783 10.0005 13.2783 9.27847 12.6272C7.91044 11.3946 3.32948 7.50025 0.720316 5.28881C0.59042 5.17856 0.407572 5.15424 0.253764 5.22556C0.0991348 5.29738 0 5.45205 0 5.62251V16.625C0 17.5901 0.784834 18.375 1.75001 18.375H19.25C20.2152 18.375 21 17.5901 21 16.625V5.62251C21 5.45205 20.9009 5.29697 20.7462 5.2256Z" fill="#EBE231"/>
</svg>
