<svg width="36" height="41" viewBox="0 0 36 41" fill="none" xmlns="http://www.w3.org/2000/svg">
<circle cx="16" cy="16" r="16" fill="#F8EE1E"/>
<path d="M7.19604 32.9116L7.19604 29.5366H6.07104V32.9116H7.19604Z" fill="#B2B1B4"/>
<path d="M29.696 12.6616H34.196C34.3452 12.6616 34.4883 12.6024 34.5938 12.4969C34.6993 12.3914 34.7585 12.2483 34.7585 12.0991C34.7585 11.9499 34.6993 11.8069 34.5938 11.7014C34.4883 11.5959 34.3452 11.5366 34.196 11.5366H29.696V12.6616Z" fill="#686869"/>
<path d="M31.946 10.9741H28.571V13.2241H31.946V10.9741Z" fill="#4E4E4F"/>
<path d="M22.946 9.84912H28.0085L29.696 10.9741V13.2241L28.0085 14.3491H22.946V9.84912Z" fill="#686869"/>
<path d="M26.321 9.84912H21.821V14.3491H26.321V9.84912Z" fill="#4E4E4F"/>
<path d="M24.6335 11.5366H22.946V12.6616H24.6335V11.5366Z" fill="#343433"/>
<path d="M14.5085 18.2866H13.3835V21.0991H14.5085V18.2866Z" fill="#4E4E4F"/>
<path d="M7.93634 26.1328L10.4584 25.2922C10.8227 25.1726 11.135 24.9318 11.3434 24.61C11.5518 24.2882 11.6438 23.9048 11.604 23.5235L11.1306 18.793L10.0113 18.9049L10.4843 23.635C10.4976 23.7622 10.4669 23.89 10.3974 23.9972C10.328 24.1045 10.2239 24.1848 10.1025 24.2247L7.58056 25.0653L7.93634 26.1328Z" fill="#B2B1B4"/>
<path d="M22.946 9.84912V14.3491H20.696L18.1137 17.6692C17.6875 18.2172 17.1502 18.6689 16.537 18.9945C15.9238 19.3201 15.2487 19.5123 14.5559 19.5584L9.37123 19.9038C9.08639 19.9228 8.81942 20.0494 8.62442 20.2578C8.42942 20.4663 8.32097 20.7412 8.32104 21.0266V31.2241H4.87805C4.27904 31.2241 3.70198 30.9986 3.26164 30.5925C2.82129 30.1864 2.54992 29.6295 2.50149 29.0324C2.33879 27.0342 2.13354 24.0401 2.13354 21.6616C2.13354 17.7241 3.82104 12.6616 3.82104 12.6616V10.8992C3.82103 10.6142 3.92918 10.3399 4.12364 10.1315C4.3181 9.9232 4.58438 9.79643 4.8687 9.77684L20.1335 8.72412L22.946 9.84912Z" fill="#EBEBEC"/>
<path d="M19.0085 10.9741H17.8835V12.6616H19.0085V10.9741Z" fill="white"/>
<path d="M16.7585 10.9741H15.6335V12.6616H16.7585V10.9741Z" fill="white"/>
<path d="M14.5085 10.9741H13.3835V12.6616H14.5085V10.9741Z" fill="white"/>
<path d="M12.2585 10.9741H11.1335V12.6616H12.2585V10.9741Z" fill="white"/>
<path d="M4.94604 31.2241V23.3491C4.94604 22.9016 5.12384 22.4723 5.4403 22.1559C5.75677 21.8394 6.18599 21.6616 6.63354 21.6616H8.32104V31.2241H4.94604Z" fill="#4E4E4F"/>
<path d="M6.07104 18.8491C5.44972 18.8491 4.94604 18.3454 4.94604 17.7241C4.94604 17.1028 5.44972 16.5991 6.07104 16.5991C6.69237 16.5991 7.19604 17.1028 7.19604 17.7241C7.19604 18.3454 6.69237 18.8491 6.07104 18.8491Z" fill="#4E4E4F"/>
<path d="M18.446 13.7866H5.50854V14.9116H18.446V13.7866Z" fill="white"/>
<path d="M6.63354 11.5366H5.50854V12.6616H6.63354V11.5366Z" fill="#D7D7D7"/>
</svg>
