<svg width="32" height="32" viewBox="0 0 32 32" fill="none" xmlns="http://www.w3.org/2000/svg">
<circle cx="16" cy="16" r="16" fill="#F8EE1E"/>
<path d="M5.9999 4.19995H25.9999C26.8836 4.19995 27.5999 4.9163 27.5999 5.79995V20.6C27.5999 21.9254 26.5254 23 25.1999 23H6.7999C5.47442 23 4.3999 21.9254 4.3999 20.6V5.79995C4.3999 4.9163 5.11625 4.19995 5.9999 4.19995Z" fill="#F2F2F2"/>
<path d="M20.4 27.4C20.4 27.4 18.4 26.6 18.4 25V23H13.6V25C13.6 26.6 11.6 27.4 11.6 27.4" fill="#CDD6E0"/>
<path d="M15.9999 22.1999C15.3372 22.1999 14.7999 21.6626 14.7999 20.9999C14.7999 20.7789 14.979 20.5999 15.1999 20.5999C15.4208 20.5999 15.5999 20.7789 15.5999 20.9999C15.5999 21.2208 15.779 21.3999 15.9999 21.3999C16.2208 21.3999 16.3999 21.2208 16.3999 20.9999C16.3999 20.7789 16.579 20.5999 16.7999 20.5999C17.0208 20.5999 17.1999 20.7789 17.1999 20.9999C17.1999 21.6626 16.6627 22.1999 15.9999 22.1999Z" fill="#CDD6E0"/>
<path d="M27.5999 6.59985H4.3999V19.3999H27.5999V6.59985Z" fill="#71C1F4"/>
<path d="M27.5999 6.59985V19.3999H11.3159C20.7999 15.9679 20.7999 6.59985 20.7999 6.59985H27.5999Z" fill="#7FD2F5"/>
<path d="M15.9999 5.8C16.2208 5.8 16.3998 5.62091 16.3998 5.4C16.3998 5.17909 16.2208 5 15.9999 5C15.7789 5 15.5999 5.17909 15.5999 5.4C15.5999 5.62091 15.7789 5.8 15.9999 5.8Z" fill="#95CCF2"/>
<path d="M5.99978 9.80001C6.10586 9.79999 6.20758 9.75783 6.28258 9.68281L7.48258 8.48282C7.63417 8.32586 7.632 8.07638 7.47771 7.92209C7.32341 7.7678 7.07393 7.76563 6.91698 7.91722L5.71698 9.11722C5.60262 9.23161 5.56841 9.40363 5.63031 9.55308C5.69221 9.70252 5.83802 9.79998 5.99978 9.80001Z" fill="#95CCF2"/>
<path d="M9.8827 7.91716C9.7265 7.76101 9.4733 7.76101 9.3171 7.91716L5.7171 11.5172C5.61311 11.6176 5.57141 11.7663 5.60802 11.9062C5.64462 12.046 5.75384 12.1552 5.89369 12.1918C6.03354 12.2284 6.18227 12.1867 6.2827 12.0828L9.8827 8.48276C10.0388 8.32656 10.0388 8.07336 9.8827 7.91716Z" fill="#95CCF2"/>
<path d="M21.8 28H10.2C10.0895 28 10 27.7761 10 27.5C10 27.2239 10.0895 27 10.2 27H21.8C21.9105 27 22 27.2239 22 27.5C22 27.7761 21.9105 28 21.8 28Z" fill="#F2F2F2"/>
</svg>
