<svg width="44" height="34" viewBox="0 0 44 34" fill="none" xmlns="http://www.w3.org/2000/svg">
<circle cx="16" cy="16" r="16" fill="#F8EE1E"/>
<path d="M30.9998 12.2139H27.2855V14.6901H30.9998V12.2139Z" fill="#B7B2B8"/>
<path d="M29.1427 12.2139H27.2855V14.6901H29.1427V12.2139Z" fill="#C9C6CA"/>
<path d="M27.4071 10.8767L24.8094 10.3572V16.5477L27.4071 16.0282C27.6964 15.9703 27.9047 15.7163 27.9047 15.4212V11.4838C27.9047 11.1885 27.6964 10.9345 27.4071 10.8767Z" fill="#6F6571"/>
<path d="M18.3095 17.7856H13.0476V21.4999H16.2336C16.495 21.4999 16.7004 21.2711 16.6632 21.0124C16.539 20.1501 16.5253 18.39 18.3095 17.7856Z" fill="#5D5360"/>
<path d="M16.8824 19.0237C17.1209 18.5077 17.5521 18.0422 18.3096 17.7856H13.0477V19.0237H16.8824Z" fill="#4B3F4E"/>
<path d="M5 11.3721V15.5326C5 16.1228 5.41658 16.6309 5.99526 16.7466L8.09524 17.1666V9.73804L5.99526 10.158C5.41658 10.2738 5 10.7819 5 11.3721Z" fill="#6F6571"/>
<path d="M6.2381 10.1095V13.4293C6.2381 14.0817 5.64121 14.571 5.00152 14.443L5 14.4428V15.5325C5 16.1227 5.41658 16.6308 5.99526 16.7466L8.09517 17.1666V9.73804L6.2381 10.1095Z" fill="#5D5360"/>
<path d="M24.1904 9.11914H8.71417C8.03038 9.11914 7.47607 9.67344 7.47607 10.3572V16.5477C7.47607 17.2315 8.03038 17.7858 8.71417 17.7858H24.1904C24.5323 17.7858 24.8094 17.5086 24.8094 17.1668V9.73819C24.8094 9.39633 24.5323 9.11914 24.1904 9.11914Z" fill="white"/>
<path d="M13.6666 16.5477C11.6153 16.5477 9.95227 14.8848 9.95227 12.8334V9.11914H8.71417C8.03038 9.11914 7.47607 9.67344 7.47607 10.3572V16.5477C7.47607 17.2315 8.03038 17.7858 8.71417 17.7858H24.1904C24.5323 17.7858 24.8094 17.5086 24.8094 17.1668V16.5477H13.6666Z" fill="#D7D7D7"/>
<path d="M13.1173 24.2204L14.9047 17.7859H9.33328L6.23804 28.9288H16.6961C14.2398 28.9288 12.4599 26.5871 13.1173 24.2204Z" fill="white"/>
<path d="M14.9047 17.7856H9.33328L6.23804 28.9285H8.77997L11.1535 20.3839C11.3767 19.58 12.1086 19.0237 12.9428 19.0237H14.5608L14.9047 17.7856Z" fill="#D7D7D7"/>
<path d="M16.7619 33.8809H5.61905C5.27719 33.8809 5 33.6037 5 33.2618V29.5475C5 29.2057 5.27719 28.9285 5.61905 28.9285H16.7619C17.1038 28.9285 17.381 29.2057 17.381 29.5475V33.2618C17.381 33.6037 17.1038 33.8809 16.7619 33.8809Z" fill="#6F6571"/>
<path d="M13.0477 12.8333H9.95242C9.61026 12.8333 9.33337 12.5564 9.33337 12.2143C9.33337 11.8721 9.61026 11.5952 9.95242 11.5952H13.0477C13.3898 11.5952 13.6667 11.8721 13.6667 12.2143C13.6667 12.5564 13.3898 12.8333 13.0477 12.8333Z" fill="#4B3F4E"/>
<path d="M22.3333 12.8333H21.7143C21.3721 12.8333 21.0952 12.5564 21.0952 12.2143C21.0952 11.8721 21.3721 11.5952 21.7143 11.5952H22.3333C22.6755 11.5952 22.9524 11.8721 22.9524 12.2143C22.9524 12.5564 22.6755 12.8333 22.3333 12.8333Z" fill="#D7D7D7"/>
<path d="M22.3333 15.3094H21.7143C21.3721 15.3094 21.0952 15.0325 21.0952 14.6903C21.0952 14.3482 21.3721 14.0713 21.7143 14.0713H22.3333C22.6755 14.0713 22.9524 14.3482 22.9524 14.6903C22.9524 15.0325 22.6755 15.3094 22.3333 15.3094Z" fill="#D7D7D7"/>
<path d="M13.0477 15.3096H9.95242C9.61026 15.3096 9.33337 15.0327 9.33337 14.6906C9.33337 14.3484 9.61026 14.0715 9.95242 14.0715H13.0477C13.3898 14.0715 13.6667 14.3484 13.6667 14.6906C13.6667 15.0327 13.3898 15.3096 13.0477 15.3096Z" fill="#4B3F4E"/>
<path d="M43.381 12.8333H34.0952V14.0713H43.381C43.7231 14.0713 44 13.7945 44 13.4523C44 13.1101 43.7231 12.8333 43.381 12.8333Z" fill="#B7B2B8"/>
<path d="M9.33334 32.643C8.30769 32.643 7.4762 31.8115 7.4762 30.7859V28.9287H5.61905C5.27719 28.9287 5 29.2059 5 29.5478V33.2621C5 33.6039 5.27719 33.8811 5.61905 33.8811H16.7619C17.1038 33.8811 17.381 33.6039 17.381 33.2621V32.643H9.33334Z" fill="#5D5360"/>
<path d="M27.4071 14.171L24.8094 14.6905V16.5476L27.4071 16.0281C27.6964 15.9702 27.9047 15.7162 27.9047 15.4211V13.564C27.9047 13.8591 27.6964 14.1131 27.4071 14.171Z" fill="#5D5360"/>
<path d="M34.2909 14.8315L33.238 15.1825C32.9856 15.2666 32.7212 15.3095 32.455 15.3095H30.9999C30.658 15.3095 30.3809 15.0323 30.3809 14.6905V12.2143C30.3809 11.8724 30.658 11.5952 30.9999 11.5952H32.455C32.7212 11.5952 32.9855 11.6381 33.238 11.7223L34.2909 12.0732C34.5437 12.1574 34.7142 12.394 34.7142 12.6605V14.2442C34.7142 14.5108 34.5437 14.7473 34.2909 14.8315Z" fill="#6F6571"/>
<path d="M34.291 13.5934L33.2381 13.9443C32.9857 14.0285 32.7213 14.0714 32.4551 14.0714H31C30.6581 14.0714 30.381 13.7942 30.381 13.4523V14.6904C30.381 15.0323 30.6581 15.3095 31 15.3095H32.4551C32.7213 15.3095 32.9856 15.2666 33.2381 15.1824L34.291 14.8315C34.5438 14.7472 34.7143 14.5107 34.7143 14.2442V13.0061C34.7142 13.2726 34.5438 13.5091 34.291 13.5934Z" fill="#5D5360"/>
<path d="M39.0475 12.8333H37.1904L35.9523 14.0713H37.8094L39.0475 12.8333Z" fill="#9C969E"/>
<path d="M42.7619 12.8333H40.9047L39.6666 14.0713H41.5238L42.7619 12.8333Z" fill="#9C969E"/>
</svg>
