<svg width="32" height="32" viewBox="0 0 32 32" fill="none" xmlns="http://www.w3.org/2000/svg">
<circle cx="16" cy="16" r="16" fill="#F8EE1E"/>
<path d="M15.3552 27.4443C9.08388 27.4443 4 22.2956 4 15.9443C4 9.59311 9.08388 4.44434 15.3552 4.44434L15.8442 15.9443L15.3552 27.4443Z" fill="#6F6571"/>
<path d="M15.3552 4.44434C21.6265 4.44434 26.7104 9.59306 26.7104 15.9443C26.7104 22.2956 21.6265 27.4443 15.3552 27.4443V4.44434Z" fill="#5D5360"/>
<path d="M15.3551 20.523C12.8584 20.523 10.8345 18.4732 10.8345 15.9447C10.8345 13.4162 12.8584 11.3665 15.3551 11.3665L15.8442 15.9447L15.3551 20.523Z" fill="#C2C2C2"/>
<path d="M15.3552 11.3665C17.8519 11.3665 19.8758 13.4162 19.8758 15.9447C19.8758 18.4732 17.8519 20.523 15.3552 20.523V11.3665Z" fill="#D7D7D7"/>
<path d="M23.4556 22.774C22.3104 22.774 21.5536 21.5637 22.0485 20.518C22.2641 20.0626 22.4485 19.5892 22.5989 19.1006L23.5602 15.9436L22.5989 12.7867C22.4485 12.2981 22.2641 11.8247 22.0486 11.3693C21.5536 10.3235 22.3105 9.11328 23.4556 9.11328H26.5364C27.4243 10.1785 28.1085 11.4235 28.528 12.7867V19.1005C28.1085 20.4637 27.4243 21.7088 26.5364 22.774H23.4556Z" fill="#D9D9D9"/>
<path d="M23.0711 15.9438C23.0711 17.0433 22.905 18.1033 22.5981 19.1005H28.5273C28.8342 18.1034 29.0002 17.0433 29.0002 15.9438C29.0002 14.8443 28.8342 13.7842 28.5273 12.7871H22.5981C22.905 13.7843 23.0711 14.8443 23.0711 15.9438Z" fill="#C2C2C2"/>
<path d="M14.6216 15.2017V16.6876H15.3552L15.8443 15.9446L15.3552 15.2017H14.6216Z" fill="#D7D7D7"/>
<path d="M15.3552 15.2017H16.0888V16.6876H15.3552V15.2017Z" fill="#5D5360"/>
</svg>
