<svg width="26" height="26" viewBox="0 0 26 26" fill="none" xmlns="http://www.w3.org/2000/svg">
<g clip-path="url(#clip0)">
<path d="M23.1748 1.70166H1.08504C0.48622 1.70166 0 2.18788 0 2.7867V17.1174H24.2598V2.7867C24.2598 2.18788 23.7736 1.70166 23.1748 1.70166Z" fill="#40596B"/>
<path d="M0 17.1174V18.9702C0 19.569 0.48622 20.0552 1.08504 20.0552H23.4512C23.8965 20.0552 24.2598 19.6918 24.2598 19.2466V17.1174H0Z" fill="#F2F2F2"/>
<path d="M12.1299 19.1647C12.4493 19.1647 12.7082 18.9058 12.7082 18.5864C12.7082 18.267 12.4493 18.0081 12.1299 18.0081C11.8104 18.0081 11.5515 18.267 11.5515 18.5864C11.5515 18.9058 11.8104 19.1647 12.1299 19.1647Z" fill="#CDD6E0"/>
<path d="M17.3555 22.7629H6.89917L7.90744 20.8078L8.29641 20.0554H15.9633L16.3523 20.8078L17.3555 22.7629Z" fill="#CDD6E0"/>
<path d="M18.594 22.7576H5.66568C4.81608 22.7576 4.13025 23.4434 4.13025 24.293H20.1295C20.1295 23.4485 19.4436 22.7576 18.594 22.7576Z" fill="#40596B"/>
<path d="M22.6476 3.22192H1.61218V15.9507H22.6476V3.22192Z" fill="#71C1F4"/>
<path d="M16.3523 20.8078H7.90747L8.29645 20.0554H15.9634L16.3523 20.8078Z" fill="#ACB3BA"/>
<path d="M24.915 10.6277H18.8501C18.2512 10.6277 17.765 11.1139 17.765 11.7127V23.2131C17.765 23.8119 18.2512 24.2982 18.8501 24.2982H24.915C25.5138 24.2982 26.0001 23.8119 26.0001 23.2131V11.7076C26.0001 11.1088 25.5138 10.6277 24.915 10.6277Z" fill="#334A5E"/>
<path d="M25.2989 12.3013H18.4662V21.9591H25.2989V12.3013Z" fill="#71C1F4"/>
<path d="M21.885 23.679C22.1903 23.679 22.4378 23.4315 22.4378 23.1262C22.4378 22.821 22.1903 22.5735 21.885 22.5735C21.5798 22.5735 21.3323 22.821 21.3323 23.1262C21.3323 23.4315 21.5798 23.679 21.885 23.679Z" fill="#4CDBC4"/>
<path d="M22.8217 11.631H20.9485C20.9382 11.631 20.9331 11.6259 20.9331 11.6157V11.3137C20.9331 11.3035 20.9382 11.2983 20.9485 11.2983H22.8217C22.8319 11.2983 22.837 11.3035 22.837 11.3137V11.6157C22.837 11.6259 22.8268 11.631 22.8217 11.631Z" fill="#4CDBC4"/>
</g>
<defs>
<clipPath id="clip0">
<rect width="26" height="26" fill="white"/>
</clipPath>
</defs>
</svg>
