<svg width="21" height="21" viewBox="0 0 21 21" fill="none" xmlns="http://www.w3.org/2000/svg">
<g clip-path="url(#clip0)">
<path d="M15.1278 0.409241H5.87208C2.85972 0.409241 0.409058 2.8599 0.409058 5.87227V15.1282C0.409058 18.1404 2.85972 20.591 5.87208 20.591H15.128C18.1402 20.591 20.5908 18.1404 20.5908 15.1282V5.87227C20.5908 2.8599 18.1402 0.409241 15.1278 0.409241V0.409241ZM10.4999 16.0184C7.4571 16.0184 4.98165 13.543 4.98165 10.5001C4.98165 7.45728 7.4571 4.98183 10.4999 4.98183C13.5428 4.98183 16.0183 7.45728 16.0183 10.5001C16.0183 13.543 13.5428 16.0184 10.4999 16.0184ZM16.1502 6.28323C15.251 6.28323 14.5196 5.55184 14.5196 4.65263C14.5196 3.75342 15.251 3.02188 16.1502 3.02188C17.0494 3.02188 17.781 3.75342 17.781 4.65263C17.781 5.55184 17.0494 6.28323 16.1502 6.28323Z" fill="#BABABA"/>
<path d="M10.5 6.1651C8.10965 6.1651 6.16479 8.1098 6.16479 10.5003C6.16479 12.8906 8.10965 14.8354 10.5 14.8354C12.8904 14.8354 14.8351 12.8906 14.8351 10.5003C14.8351 8.1098 12.8904 6.1651 10.5 6.1651Z" fill="#BABABA"/>
<path d="M16.1503 4.2049C15.9037 4.2049 15.7029 4.40568 15.7029 4.65235C15.7029 4.89901 15.9037 5.0998 16.1503 5.0998C16.3972 5.0998 16.5979 4.89917 16.5979 4.65235C16.5979 4.40552 16.3972 4.2049 16.1503 4.2049Z" fill="#BABABA"/>
</g>
<defs>
<clipPath id="clip0">
<rect x="0.409058" y="0.409241" width="20.1818" height="20.1818" fill="white"/>
</clipPath>
</defs>
</svg>
