<svg width="21" height="21" viewBox="0 0 21 21" fill="none" xmlns="http://www.w3.org/2000/svg">
<g clip-path="url(#clip0)">
<path d="M10.1571 16.1936H11.3655C11.3655 16.1936 11.7296 16.1541 11.9155 15.9548C12.0921 15.769 12.0921 15.425 12.0921 15.425C12.0921 15.425 12.066 13.8046 12.8228 13.5666C13.5687 13.3303 14.5147 15.1307 15.523 15.8228C16.2933 16.3517 16.8726 16.2382 16.8726 16.2382L19.5728 16.2012C19.5728 16.2012 20.9872 16.1129 20.3187 15.002C20.2674 14.9138 19.9394 14.1822 18.3249 12.6811C16.633 11.1162 16.86 11.3685 18.8933 8.6557C20.1286 7.00332 20.634 5.99339 20.47 5.56452C20.3305 5.16089 19.4105 5.26095 19.4105 5.26095L16.3815 5.28702C16.3815 5.28702 16.1545 5.26095 15.9905 5.3627C15.8265 5.46277 15.7265 5.6915 15.7265 5.6915C15.7265 5.6915 15.2455 6.97725 14.603 8.06286C13.2382 10.3577 12.6958 10.4838 12.4814 10.3325C11.9735 10.0037 12.1038 9.00384 12.1038 8.28739C12.1038 6.06655 12.4436 5.13398 11.4471 4.89432C11.1191 4.8178 10.8744 4.76818 10.0302 4.75473C8.94539 4.74295 8.03048 4.76314 7.51164 5.01625C7.17107 5.18695 6.90618 5.56452 7.05839 5.58386C7.2602 5.60909 7.71345 5.70664 7.95311 6.03543C8.26846 6.46093 8.255 7.41116 8.255 7.41116C8.255 7.41116 8.43243 10.0314 7.83959 10.3569C7.42334 10.5772 6.86834 10.1214 5.65743 8.03932C5.03936 6.97977 4.57182 5.79409 4.57182 5.79409C4.57182 5.79409 4.48352 5.57882 4.32039 5.45268C4.1295 5.31393 3.852 5.26348 3.852 5.26348L0.963477 5.2887C0.963477 5.2887 0.534614 5.30216 0.384091 5.49052C0.2445 5.6545 0.370636 6.00768 0.370636 6.00768C0.370636 6.00768 2.62932 11.2945 5.19073 13.9568C7.53686 16.3971 10.1992 16.2399 10.1992 16.2399L10.1571 16.1936Z" fill="#BABABA"/>
</g>
<defs>
<clipPath id="clip0">
<rect x="0.318115" y="0.408997" width="20.1818" height="20.1818" fill="white"/>
</clipPath>
</defs>
</svg>
