<svg width="72" height="56" viewBox="0 0 72 56" fill="none" xmlns="http://www.w3.org/2000/svg">
<path d="M0 0V55.125L36 50.9062V4.21875L0 0Z" fill="#D8D8D8"/>
<path d="M72 0L31.7812 4.21875V50.9062L72 55.125V0Z" fill="#D8D8D8"/>
<path d="M72 53.0156C72 50.1986 70.903 47.55 68.9109 45.5579L43.4578 20.1047C41.4657 18.1126 38.8171 17.0156 36 17.0156L27.5625 36.0703L36 55.125H72V53.0156Z" fill="#C0C0C0"/>
<path d="M28.5422 20.1047L3.08911 45.5579C1.09702 47.55 0 50.1986 0 53.0156V55.125H36V17.0156C33.1829 17.0156 30.5343 18.1126 28.5422 20.1047Z" fill="#C0C0C0"/>
<path d="M35.5443 0L27 19L35.5443 38C38.3971 38 41.0792 36.9061 43.0965 34.9198L68.8718 9.53968C70.8891 7.55331 72 4.91224 72 2.10332V0H35.5443Z" fill="#FEFFFF"/>
<path d="M0 0V2.10332C0 4.91224 1.12749 7.55331 3.17492 9.53968L29.3351 34.9198C31.3825 36.9061 34.1046 38 37 38V0H0Z" fill="#FEFFFF"/>
<path d="M38.1094 8.4375H36L34.5938 10.5469L36 12.6562H38.1094V8.4375Z" fill="#F8EE1E"/>
<path d="M33.8906 8.4375H36V12.6562H33.8906V8.4375Z" fill="#F8EE1E"/>
<path d="M42.3281 8.4375H46.5469V12.6562H42.3281V8.4375Z" fill="#F8EE1E"/>
<path d="M25.4531 8.4375H29.6719V12.6562H25.4531V8.4375Z" fill="#F8EE1E"/>
</svg>
